<?xml version="1.0" encoding="UTF-8" standalone="no"?>
<svg
   xmlns:dc="http://purl.org/dc/elements/1.1/"
   xmlns:cc="http://creativecommons.org/ns#"
   xmlns:rdf="http://www.w3.org/1999/02/22-rdf-syntax-ns#"
   xmlns:svg="http://www.w3.org/2000/svg"
   xmlns="http://www.w3.org/2000/svg"
   version="1.1"
   id="coil-logo-svg"
   x="0px"
   y="0px"
   width="100%"
   height="100%"
   viewBox="0 0 100 100"
   enable-background="new 0 0 200 200"
   xml:space="preserve"><metadata
   id="metadata885"><rdf:RDF><cc:Work
       rdf:about=""><dc:format>image/svg+xml</dc:format><dc:type
         rdf:resource="http://purl.org/dc/dcmitype/StillImage" /><dc:title></dc:title></cc:Work></rdf:RDF></metadata><defs
   id="defs883" />
<path
   d="m 85.355393,14.644606 c -19.526141,-19.5261413 -51.184646,-19.5261413 -70.710787,0 -19.5261413,19.526141 -19.5261413,51.184646 0,70.710787 19.526141,19.526147 51.184646,19.526147 70.710787,0 19.526147,-19.526141 19.526147,-51.184646 0,-70.710787 z M 32.721366,24.813274 47.040607,20.637613 V 9.14971 c 0,-1.1791577 1.172885,-2.1356553 2.352043,-2.1356553 1.179157,0 2.352043,0.9559749 2.352043,2.1356553 v 13.100359 c 0,0.953884 -0.504383,1.792257 -1.422202,2.054118 l -9.370019,2.686556 25.927359,8.407249 c 0.884368,0.26186 1.548167,1.079326 1.548167,2.047322 5.23e-4,1.179158 -0.942386,1.901497 -2.121543,1.90202 L 49.924734,39.120492 c 0,0 -5.22e-4,0 -10e-4,0 -1.179157,0 -2.135132,-0.721294 -2.135654,-1.900451 -5.24e-4,-1.179681 0.954929,-2.019099 2.134609,-2.019621 l 2.90608,0.17771 -19.534503,-6.188488 h -0.06167 c -0.966951,-0.522676 -1.848707,-1.13682 -1.887907,-2.122066 -0.0392,-0.986289 0.428595,-1.984602 1.376729,-2.254302 z m -0.919387,13.144264 c 0.36326,-1.122187 1.568551,-1.736332 2.689691,-1.373071 l 32.490082,10.526701 c 0.667981,0.216387 1.186998,0.747427 1.388229,1.420634 0.200707,0.673206 0.05802,1.401818 -0.382599,1.94906 l -0.03868,0.216911 c -0.405597,0.504382 -1.017129,0.965905 -1.663679,0.965905 H 49.866194 c -1.179157,0 -2.135656,-1.172886 -2.135656,-2.352043 0,-1.179158 0.955975,-2.352043 2.135656,-2.352043 h 3.085358 L 33.175049,40.599666 c -1.122186,-0.36326 -1.736853,-1.520465 -1.37307,-2.642128 z m 0.0089,11.919632 c 0.362214,-1.122185 1.565938,-1.734762 2.688647,-1.37098 l 32.480673,10.495863 c 1.000926,0.323014 1.617684,1.32394 1.452518,2.362497 -0.164643,1.037512 -1.058942,1.798006 -2.108999,1.798006 -0.0016,0 -0.0026,0 -0.0037,0 l -16.378061,-0.02509 c -1.179159,-0.0021 -2.133565,-1.164 -2.131474,-2.343157 0.0021,-1.178113 0.958065,-2.335841 2.135655,-2.335841 0.001,0 0.0026,0 0.0037,0 l 2.741445,0.21116 L 33.186571,52.47121 C 32.063863,52.108996 31.44815,50.999354 31.810887,49.877167 Z m 34.869282,25.038808 -14.935475,4.2457 v 11.67084 c 0,1.179157 -1.172886,2.135656 -2.352043,2.135656 -1.179158,0 -2.352043,-0.955975 -2.352043,-2.135656 V 77.55654 c 0,-0.950749 1.107027,-1.787031 2.020666,-2.051505 L 58.80552,72.754712 33.106049,64.434751 C 31.98334,64.073059 31.42669,62.869858 31.788381,61.747149 32.150074,60.62444 33.382545,60.008205 34.505776,60.369898 L 66.98854,70.832309 c 0.893777,0.287994 1.370458,1.125845 1.356868,2.064572 -0.01411,0.938726 -0.76363,1.758283 -1.665247,2.019097 z"
   id="path878"
   style="fill:#0A080D" />
</svg>
